<svg xmlns="http://www.w3.org/2000/svg" xmlns:xlink="http://www.w3.org/1999/xlink" width="500" zoomAndPan="magnify" viewBox="0 0 375 374.999991" height="500" preserveAspectRatio="xMidYMid meet" version="1.0"><defs><g/><clipPath id="49897eadf7"><path d="M 121.90625 92.179688 L 253 92.179688 L 253 209.929688 L 121.90625 209.929688 Z M 121.90625 92.179688 " clip-rule="nonzero"/></clipPath></defs><g fill="#005596" fill-opacity="1"><g transform="translate(121.746632, 248.996396)"><g><path d="M 5.25 -2.9375 L 13.03125 -2.9375 L 13.03125 0 L 1.59375 0 L 1.59375 -17.78125 L 5.25 -17.78125 Z M 5.25 -2.9375 "/></g></g></g><g fill="#005596" fill-opacity="1"><g transform="translate(135.28212, 248.996396)"><g><path d="M 16.1875 -8.484375 C 16.1875 -6.734375 15.875 -5.195312 15.25 -3.875 C 14.632812 -2.5625 13.75 -1.546875 12.59375 -0.828125 C 11.445312 -0.109375 10.128906 0.25 8.640625 0.25 C 7.171875 0.25 5.859375 -0.101562 4.703125 -0.8125 C 3.546875 -1.519531 2.648438 -2.53125 2.015625 -3.84375 C 1.378906 -5.164062 1.054688 -6.679688 1.046875 -8.390625 L 1.046875 -9.265625 C 1.046875 -11.015625 1.359375 -12.550781 1.984375 -13.875 C 2.617188 -15.207031 3.507812 -16.226562 4.65625 -16.9375 C 5.8125 -17.65625 7.128906 -18.015625 8.609375 -18.015625 C 10.097656 -18.015625 11.414062 -17.65625 12.5625 -16.9375 C 13.71875 -16.226562 14.609375 -15.207031 15.234375 -13.875 C 15.867188 -12.550781 16.1875 -11.019531 16.1875 -9.28125 Z M 12.46875 -9.296875 C 12.46875 -11.148438 12.132812 -12.5625 11.46875 -13.53125 C 10.800781 -14.5 9.851562 -14.984375 8.625 -14.984375 C 7.394531 -14.984375 6.441406 -14.503906 5.765625 -13.546875 C 5.097656 -12.597656 4.765625 -11.195312 4.765625 -9.34375 L 4.765625 -8.484375 C 4.765625 -6.671875 5.097656 -5.265625 5.765625 -4.265625 C 6.429688 -3.265625 7.390625 -2.765625 8.640625 -2.765625 C 9.867188 -2.765625 10.8125 -3.242188 11.46875 -4.203125 C 12.132812 -5.171875 12.46875 -6.578125 12.46875 -8.421875 Z M 12.46875 -9.296875 "/></g></g></g><g fill="#005596" fill-opacity="1"><g transform="translate(152.540164, 248.996396)"><g><path d="M 15.65625 -2.25 C 14.988281 -1.457031 14.050781 -0.84375 12.84375 -0.40625 C 11.644531 0.03125 10.3125 0.25 8.84375 0.25 C 7.3125 0.25 5.960938 -0.0820312 4.796875 -0.75 C 3.640625 -1.425781 2.742188 -2.40625 2.109375 -3.6875 C 1.484375 -4.96875 1.160156 -6.46875 1.140625 -8.1875 L 1.140625 -9.40625 C 1.140625 -11.175781 1.4375 -12.707031 2.03125 -14 C 2.632812 -15.300781 3.5 -16.296875 4.625 -16.984375 C 5.757812 -17.671875 7.082031 -18.015625 8.59375 -18.015625 C 10.695312 -18.015625 12.34375 -17.507812 13.53125 -16.5 C 14.71875 -15.5 15.425781 -14.039062 15.65625 -12.125 L 12.078125 -12.125 C 11.921875 -13.132812 11.5625 -13.875 11 -14.34375 C 10.445312 -14.820312 9.679688 -15.0625 8.703125 -15.0625 C 7.460938 -15.0625 6.515625 -14.59375 5.859375 -13.65625 C 5.210938 -12.71875 4.882812 -11.328125 4.875 -9.484375 L 4.875 -8.34375 C 4.875 -6.476562 5.226562 -5.070312 5.9375 -4.125 C 6.644531 -3.175781 7.679688 -2.703125 9.046875 -2.703125 C 10.421875 -2.703125 11.398438 -2.992188 11.984375 -3.578125 L 11.984375 -6.640625 L 8.65625 -6.640625 L 8.65625 -9.34375 L 15.65625 -9.34375 Z M 15.65625 -2.25 "/></g></g></g><g fill="#005596" fill-opacity="1"><g transform="translate(169.566316, 248.996396)"><g/></g></g><g fill="#005596" fill-opacity="1"><g transform="translate(175.790929, 248.996396)"><g><path d="M 15.546875 -5.921875 C 15.398438 -4.003906 14.691406 -2.492188 13.421875 -1.390625 C 12.148438 -0.296875 10.472656 0.25 8.390625 0.25 C 6.109375 0.25 4.3125 -0.515625 3 -2.046875 C 1.695312 -3.585938 1.046875 -5.695312 1.046875 -8.375 L 1.046875 -9.453125 C 1.046875 -11.171875 1.347656 -12.679688 1.953125 -13.984375 C 2.554688 -15.285156 3.414062 -16.28125 4.53125 -16.96875 C 5.65625 -17.664062 6.957031 -18.015625 8.4375 -18.015625 C 10.488281 -18.015625 12.140625 -17.460938 13.390625 -16.359375 C 14.640625 -15.265625 15.363281 -13.726562 15.5625 -11.75 L 11.90625 -11.75 C 11.8125 -12.894531 11.488281 -13.722656 10.9375 -14.234375 C 10.394531 -14.753906 9.5625 -15.015625 8.4375 -15.015625 C 7.21875 -15.015625 6.300781 -14.578125 5.6875 -13.703125 C 5.082031 -12.828125 4.773438 -11.46875 4.765625 -9.625 L 4.765625 -8.28125 C 4.765625 -6.363281 5.050781 -4.960938 5.625 -4.078125 C 6.207031 -3.191406 7.128906 -2.75 8.390625 -2.75 C 9.515625 -2.75 10.351562 -3.003906 10.90625 -3.515625 C 11.46875 -4.035156 11.789062 -4.835938 11.875 -5.921875 Z M 15.546875 -5.921875 "/></g></g></g><g fill="#005596" fill-opacity="1"><g transform="translate(192.145794, 248.996396)"><g><path d="M 5.25 -2.9375 L 13.03125 -2.9375 L 13.03125 0 L 1.59375 0 L 1.59375 -17.78125 L 5.25 -17.78125 Z M 5.25 -2.9375 "/></g></g></g><g fill="#005596" fill-opacity="1"><g transform="translate(205.681282, 248.996396)"><g><path d="M 11.625 -3.65625 L 5.203125 -3.65625 L 3.984375 0 L 0.078125 0 L 6.703125 -17.78125 L 10.09375 -17.78125 L 16.75 0 L 12.859375 0 Z M 6.1875 -6.625 L 10.625 -6.625 L 8.40625 -13.28125 Z M 6.1875 -6.625 "/></g></g></g><g fill="#005596" fill-opacity="1"><g transform="translate(222.499941, 248.996396)"><g><path d="M 10.796875 -4.65625 C 10.796875 -5.351562 10.550781 -5.882812 10.0625 -6.25 C 9.582031 -6.625 8.707031 -7.015625 7.4375 -7.421875 C 6.164062 -7.835938 5.160156 -8.242188 4.421875 -8.640625 C 2.398438 -9.734375 1.390625 -11.203125 1.390625 -13.046875 C 1.390625 -14.003906 1.660156 -14.859375 2.203125 -15.609375 C 2.742188 -16.367188 3.519531 -16.957031 4.53125 -17.375 C 5.550781 -17.800781 6.691406 -18.015625 7.953125 -18.015625 C 9.210938 -18.015625 10.335938 -17.785156 11.328125 -17.328125 C 12.328125 -16.867188 13.101562 -16.21875 13.65625 -15.375 C 14.207031 -14.539062 14.484375 -13.59375 14.484375 -12.53125 L 10.8125 -12.53125 C 10.8125 -13.34375 10.554688 -13.972656 10.046875 -14.421875 C 9.535156 -14.867188 8.816406 -15.09375 7.890625 -15.09375 C 6.992188 -15.09375 6.296875 -14.90625 5.796875 -14.53125 C 5.296875 -14.15625 5.046875 -13.65625 5.046875 -13.03125 C 5.046875 -12.457031 5.335938 -11.972656 5.921875 -11.578125 C 6.503906 -11.191406 7.363281 -10.828125 8.5 -10.484375 C 10.582031 -9.859375 12.097656 -9.082031 13.046875 -8.15625 C 14.003906 -7.226562 14.484375 -6.070312 14.484375 -4.6875 C 14.484375 -3.144531 13.898438 -1.9375 12.734375 -1.0625 C 11.566406 -0.1875 10 0.25 8.03125 0.25 C 6.664062 0.25 5.421875 0 4.296875 -0.5 C 3.171875 -1 2.3125 -1.6875 1.71875 -2.5625 C 1.132812 -3.4375 0.84375 -4.445312 0.84375 -5.59375 L 4.515625 -5.59375 C 4.515625 -3.632812 5.6875 -2.65625 8.03125 -2.65625 C 8.90625 -2.65625 9.582031 -2.832031 10.0625 -3.1875 C 10.550781 -3.539062 10.796875 -4.03125 10.796875 -4.65625 Z M 10.796875 -4.65625 "/></g></g></g><g fill="#005596" fill-opacity="1"><g transform="translate(237.866197, 248.996396)"><g><path d="M 10.796875 -4.65625 C 10.796875 -5.351562 10.550781 -5.882812 10.0625 -6.25 C 9.582031 -6.625 8.707031 -7.015625 7.4375 -7.421875 C 6.164062 -7.835938 5.160156 -8.242188 4.421875 -8.640625 C 2.398438 -9.734375 1.390625 -11.203125 1.390625 -13.046875 C 1.390625 -14.003906 1.660156 -14.859375 2.203125 -15.609375 C 2.742188 -16.367188 3.519531 -16.957031 4.53125 -17.375 C 5.550781 -17.800781 6.691406 -18.015625 7.953125 -18.015625 C 9.210938 -18.015625 10.335938 -17.785156 11.328125 -17.328125 C 12.328125 -16.867188 13.101562 -16.21875 13.65625 -15.375 C 14.207031 -14.539062 14.484375 -13.59375 14.484375 -12.53125 L 10.8125 -12.53125 C 10.8125 -13.34375 10.554688 -13.972656 10.046875 -14.421875 C 9.535156 -14.867188 8.816406 -15.09375 7.890625 -15.09375 C 6.992188 -15.09375 6.296875 -14.90625 5.796875 -14.53125 C 5.296875 -14.15625 5.046875 -13.65625 5.046875 -13.03125 C 5.046875 -12.457031 5.335938 -11.972656 5.921875 -11.578125 C 6.503906 -11.191406 7.363281 -10.828125 8.5 -10.484375 C 10.582031 -9.859375 12.097656 -9.082031 13.046875 -8.15625 C 14.003906 -7.226562 14.484375 -6.070312 14.484375 -4.6875 C 14.484375 -3.144531 13.898438 -1.9375 12.734375 -1.0625 C 11.566406 -0.1875 10 0.25 8.03125 0.25 C 6.664062 0.25 5.421875 0 4.296875 -0.5 C 3.171875 -1 2.3125 -1.6875 1.71875 -2.5625 C 1.132812 -3.4375 0.84375 -4.445312 0.84375 -5.59375 L 4.515625 -5.59375 C 4.515625 -3.632812 5.6875 -2.65625 8.03125 -2.65625 C 8.90625 -2.65625 9.582031 -2.832031 10.0625 -3.1875 C 10.550781 -3.539062 10.796875 -4.03125 10.796875 -4.65625 Z M 10.796875 -4.65625 "/></g></g></g><g clip-path="url(#49897eadf7)"><path fill="#005596" d="M 170.34375 92.300781 C 169.914062 92.300781 169.488281 92.34375 169.066406 92.425781 C 168.644531 92.507812 168.238281 92.632812 167.839844 92.796875 C 167.441406 92.960938 167.066406 93.164062 166.707031 93.402344 C 166.351562 93.640625 166.019531 93.914062 165.714844 94.21875 C 165.410156 94.519531 165.140625 94.851562 164.902344 95.210938 C 164.664062 95.566406 164.460938 95.945312 164.296875 96.339844 C 164.132812 96.738281 164.007812 97.148438 163.925781 97.570312 C 163.839844 97.992188 163.796875 98.414062 163.796875 98.847656 C 163.796875 99.277344 163.839844 99.703125 163.925781 100.121094 C 164.007812 100.542969 164.132812 100.953125 164.296875 101.351562 C 164.460938 101.746094 164.664062 102.125 164.902344 102.484375 C 165.140625 102.839844 165.410156 103.171875 165.714844 103.472656 C 166.019531 103.777344 166.351562 104.050781 166.707031 104.289062 C 167.066406 104.527344 167.441406 104.730469 167.839844 104.894531 C 168.238281 105.058594 168.644531 105.183594 169.066406 105.265625 C 169.488281 105.351562 169.914062 105.390625 170.34375 105.390625 C 170.773438 105.390625 171.199219 105.351562 171.621094 105.265625 C 172.042969 105.183594 172.453125 105.058594 172.847656 104.894531 C 173.246094 104.730469 173.625 104.527344 173.980469 104.289062 C 174.339844 104.050781 174.667969 103.777344 174.972656 103.472656 C 175.277344 103.171875 175.546875 102.839844 175.789062 102.484375 C 176.027344 102.125 176.226562 101.746094 176.390625 101.351562 C 176.558594 100.953125 176.679688 100.542969 176.765625 100.121094 C 176.847656 99.703125 176.890625 99.277344 176.890625 98.847656 C 176.890625 98.414062 176.847656 97.992188 176.765625 97.570312 C 176.679688 97.148438 176.558594 96.738281 176.390625 96.339844 C 176.226562 95.945312 176.027344 95.566406 175.789062 95.210938 C 175.546875 94.851562 175.277344 94.519531 174.972656 94.21875 C 174.667969 93.914062 174.339844 93.640625 173.980469 93.402344 C 173.625 93.164062 173.246094 92.960938 172.847656 92.796875 C 172.453125 92.632812 172.042969 92.507812 171.621094 92.425781 C 171.199219 92.34375 170.773438 92.300781 170.34375 92.300781 Z M 204.382812 92.300781 C 203.953125 92.300781 203.527344 92.34375 203.105469 92.425781 C 202.683594 92.507812 202.273438 92.632812 201.878906 92.796875 C 201.480469 92.960938 201.105469 93.164062 200.746094 93.402344 C 200.390625 93.640625 200.058594 93.914062 199.753906 94.21875 C 199.449219 94.519531 199.179688 94.851562 198.941406 95.210938 C 198.703125 95.566406 198.5 95.945312 198.335938 96.339844 C 198.171875 96.738281 198.046875 97.148438 197.964844 97.570312 C 197.878906 97.992188 197.835938 98.414062 197.835938 98.847656 C 197.835938 99.277344 197.878906 99.703125 197.964844 100.121094 C 198.046875 100.542969 198.171875 100.953125 198.335938 101.351562 C 198.5 101.746094 198.703125 102.125 198.941406 102.484375 C 199.179688 102.839844 199.449219 103.171875 199.753906 103.472656 C 200.058594 103.777344 200.390625 104.050781 200.746094 104.289062 C 201.105469 104.527344 201.480469 104.730469 201.878906 104.894531 C 202.273438 105.058594 202.683594 105.183594 203.105469 105.265625 C 203.527344 105.351562 203.953125 105.390625 204.382812 105.390625 C 204.8125 105.390625 205.238281 105.351562 205.660156 105.265625 C 206.082031 105.183594 206.492188 105.058594 206.886719 104.894531 C 207.285156 104.730469 207.664062 104.527344 208.019531 104.289062 C 208.378906 104.050781 208.707031 103.777344 209.011719 103.472656 C 209.316406 103.171875 209.585938 102.839844 209.824219 102.484375 C 210.066406 102.125 210.265625 101.746094 210.429688 101.351562 C 210.59375 100.953125 210.71875 100.542969 210.804688 100.121094 C 210.886719 99.703125 210.929688 99.277344 210.929688 98.847656 C 210.929688 98.414062 210.886719 97.992188 210.804688 97.570312 C 210.71875 97.148438 210.59375 96.738281 210.429688 96.339844 C 210.265625 95.945312 210.066406 95.566406 209.824219 95.210938 C 209.585938 94.851562 209.316406 94.519531 209.011719 94.21875 C 208.707031 93.914062 208.378906 93.640625 208.019531 93.402344 C 207.664062 93.164062 207.285156 92.960938 206.886719 92.796875 C 206.492188 92.632812 206.082031 92.507812 205.660156 92.425781 C 205.238281 92.34375 204.8125 92.300781 204.382812 92.300781 Z M 210.996094 115.792969 C 210.546875 115.789062 210.125 115.894531 209.730469 116.109375 C 209.335938 116.324219 209.019531 116.617188 208.777344 116.996094 C 208.777344 116.996094 200.289062 128.957031 187.363281 128.957031 C 174.441406 128.957031 165.953125 116.996094 165.953125 116.996094 C 165.703125 116.625 165.382812 116.335938 164.984375 116.128906 C 164.589844 115.921875 164.167969 115.824219 163.722656 115.835938 C 163.238281 115.84375 162.789062 115.980469 162.378906 116.238281 C 161.96875 116.5 161.65625 116.84375 161.4375 117.277344 C 161.21875 117.710938 161.128906 118.171875 161.167969 118.652344 C 161.203125 119.136719 161.363281 119.578125 161.644531 119.972656 C 161.644531 119.972656 171.289062 134.195312 187.363281 134.195312 C 203.441406 134.195312 213.082031 119.972656 213.082031 119.972656 C 213.375 119.574219 213.542969 119.132812 213.585938 118.640625 C 213.628906 118.148438 213.542969 117.683594 213.320312 117.242188 C 213.101562 116.800781 212.78125 116.449219 212.363281 116.1875 C 211.945312 115.929688 211.488281 115.796875 210.996094 115.792969 Z M 153.367188 123.152344 C 153.039062 123.152344 152.722656 123.214844 152.421875 123.332031 L 136.710938 129.121094 C 136.316406 129.246094 135.972656 129.457031 135.675781 129.746094 C 135.382812 130.035156 135.167969 130.375 135.03125 130.765625 L 122.304688 151.136719 C 122.199219 151.300781 122.117188 151.476562 122.054688 151.660156 C 121.988281 151.84375 121.945312 152.03125 121.925781 152.222656 C 121.902344 152.417969 121.902344 152.609375 121.921875 152.804688 C 121.945312 152.996094 121.984375 153.183594 122.050781 153.367188 C 122.113281 153.550781 122.195312 153.726562 122.296875 153.894531 C 122.398438 154.058594 122.515625 154.210938 122.652344 154.351562 C 122.789062 154.488281 122.9375 154.609375 123.101562 154.71875 C 123.261719 154.824219 123.4375 154.910156 123.617188 154.976562 L 134.996094 159.171875 L 134.996094 189.179688 C 134.996094 189.726562 135.15625 190.226562 135.46875 190.675781 C 135.78125 191.125 136.195312 191.445312 136.710938 191.632812 L 186.457031 209.960938 C 187.0625 210.183594 187.664062 210.183594 188.269531 209.960938 L 238.019531 191.632812 C 238.53125 191.445312 238.945312 191.125 239.261719 190.675781 C 239.574219 190.226562 239.730469 189.726562 239.730469 189.179688 L 239.730469 159.171875 L 251.109375 154.976562 C 251.292969 154.910156 251.464844 154.824219 251.628906 154.71875 C 251.789062 154.609375 251.941406 154.488281 252.074219 154.351562 C 252.210938 154.210938 252.328125 154.058594 252.433594 153.894531 C 252.535156 153.726562 252.617188 153.550781 252.679688 153.367188 C 252.742188 153.183594 252.785156 152.996094 252.804688 152.804688 C 252.824219 152.609375 252.824219 152.417969 252.804688 152.222656 C 252.78125 152.03125 252.738281 151.84375 252.675781 151.660156 C 252.609375 151.476562 252.527344 151.300781 252.425781 151.136719 L 239.691406 130.757812 C 239.554688 130.367188 239.339844 130.03125 239.046875 129.742188 C 238.753906 129.453125 238.410156 129.246094 238.019531 129.121094 C 237.984375 129.109375 237.949219 129.097656 237.914062 129.085938 L 222.308594 123.332031 C 221.976562 123.203125 221.632812 123.144531 221.28125 123.15625 C 220.976562 123.167969 220.683594 123.230469 220.398438 123.34375 C 220.117188 123.457031 219.863281 123.617188 219.636719 123.820312 C 219.40625 124.019531 219.222656 124.257812 219.078125 124.523438 C 218.929688 124.792969 218.835938 125.074219 218.789062 125.375 C 218.742188 125.675781 218.75 125.976562 218.808594 126.277344 C 218.863281 126.574219 218.972656 126.855469 219.128906 127.117188 C 219.285156 127.378906 219.480469 127.605469 219.714844 127.796875 C 219.949219 127.992188 220.210938 128.140625 220.496094 128.242188 L 229.542969 131.574219 L 187.363281 147.117188 L 145.183594 131.574219 L 154.230469 128.242188 C 154.523438 128.136719 154.785156 127.988281 155.023438 127.792969 C 155.261719 127.597656 155.460938 127.367188 155.617188 127.097656 C 155.773438 126.832031 155.878906 126.546875 155.9375 126.246094 C 155.992188 125.941406 155.992188 125.636719 155.941406 125.332031 C 155.890625 125.027344 155.789062 124.742188 155.636719 124.472656 C 155.480469 124.207031 155.289062 123.972656 155.050781 123.773438 C 154.816406 123.574219 154.554688 123.421875 154.265625 123.3125 C 153.972656 123.207031 153.675781 123.152344 153.367188 123.152344 Z M 138.710938 134.765625 L 183.441406 151.242188 L 183.441406 151.25 L 173.183594 167.660156 L 128.445312 151.183594 Z M 236.019531 134.765625 L 246.28125 151.183594 L 201.546875 167.660156 L 191.292969 151.25 Z M 184.746094 159.027344 L 184.746094 203.75 L 140.234375 187.351562 L 140.234375 161.097656 L 173.367188 173.304688 C 173.648438 173.410156 173.941406 173.460938 174.242188 173.464844 C 174.542969 173.46875 174.835938 173.421875 175.117188 173.324219 C 175.402344 173.226562 175.664062 173.085938 175.898438 172.898438 C 176.132812 172.710938 176.332031 172.492188 176.492188 172.238281 Z M 189.980469 159.027344 L 198.234375 172.238281 C 198.394531 172.492188 198.59375 172.710938 198.828125 172.898438 C 199.0625 173.085938 199.324219 173.226562 199.609375 173.324219 C 199.894531 173.421875 200.1875 173.46875 200.488281 173.464844 C 200.789062 173.460938 201.078125 173.410156 201.359375 173.304688 L 234.496094 161.097656 L 234.496094 187.351562 L 189.980469 203.75 Z M 189.980469 159.027344 " fill-opacity="1" fill-rule="nonzero"/></g></svg>